<svg width="120" height="40" viewBox="0 0 120 40" xmlns="http://www.w3.org/2000/svg">
  <defs>
    <linearGradient id="logoGradient" x1="0%" y1="0%" x2="100%" y2="0%">
      <stop offset="0%" style="stop-color:#667eea;stop-opacity:1" />
      <stop offset="100%" style="stop-color:#764ba2;stop-opacity:1" />
    </linearGradient>
  </defs>
  
  <!-- Фон -->
  <rect width="120" height="40" rx="8" fill="url(#logoGradient)"/>
  
  <!-- Іконка гучномовця -->
  <g transform="translate(8,8)">
    <path d="M3 9v6h4.5L12 20V4L7.5 9H3zm13.5 3c0-1.77-1.02-3.29-2.5-4.03v8.05c1.48-.73 2.5-2.25 2.5-4.02zM14 3.23v2.06c2.89.86 5 3.54 5 6.71s-2.11 5.85-5 6.71v2.06c4.01-.91 7-4.49 7-8.77s-2.99-7.86-7-8.77z" fill="white"/>
  </g>
  
  <!-- Текст -->
  <text x="32" y="25" font-family="Arial, sans-serif" font-size="12" font-weight="bold" fill="white">Дошка</text>
</svg>